<svg xmlns="http://www.w3.org/2000/svg" xmlns:xlink="http://www.w3.org/1999/xlink" width="416.886" height="34.788" viewBox="0 0 416.886 34.788"><defs><clipPath id="a"><path d="M0,0H150.8V-34.788H0Z" fill="none"/></clipPath><clipPath id="e"><path d="M0,6.757H212.162V-9.075H0Z" transform="translate(0 9.075)" fill="none"/></clipPath></defs><g transform="translate(-119 -1136)"><g transform="translate(119 1170.788)"><g clip-path="url(#a)"><g transform="translate(127.653 -24.753)"><path d="M0,0Q.522-.558,1.041-1.118c.228-.245.451-.5.682-.753a2.73,2.73,0,0,0,.189-.24.367.367,0,0,0-.036-.506.352.352,0,0,0-.46-.025l-.078.056c-.157.112-.319.229-.471.358Q-.162-1.352-1.182-.466l-.859.75c-1.088.95-2.212,1.933-3.334,2.881-2.31,1.951-4.519,3.678-6.753,5.281-1.148.824-2.214,1.52-3.258,2.126-.552.321-1.109.609-1.656.859a6.751,6.751,0,0,1-1.284.462,2.417,2.417,0,0,1-.9.072.835.835,0,0,1-.691-.518,1.974,1.974,0,0,1-.171-.738,5.678,5.678,0,0,1,.136-1.4,14.13,14.13,0,0,1,.74-2.413,22.219,22.219,0,0,1,1.71-3.37A15.647,15.647,0,0,1-14.364-.239c.064-.056.125-.117.184-.179A.345.345,0,0,0-14.1-.575a.28.28,0,0,0-.036-.209.257.257,0,0,0-.2-.107l-.04,0A.7.7,0,0,0-14.6-.8a6.441,6.441,0,0,0-.962.773,13.7,13.7,0,0,0-1.522,1.711,22.325,22.325,0,0,0-2.644,4.628,14.074,14.074,0,0,0-.992,3.306,5.586,5.586,0,0,0-.035,1.435,2.056,2.056,0,0,0,.325.925,1.481,1.481,0,0,0,.894.64,2.31,2.31,0,0,0,.922.046,6.268,6.268,0,0,0,1.468-.423,16.069,16.069,0,0,0,1.492-.715,34.249,34.249,0,0,0,3.007-1.86c1.611-1.1,3.269-2.344,5.374-4.027,1.536-1.227,3.153-2.594,5.076-4.287-.181.2-.363.394-.543.593C-3.789,3.1-4.722,4.177-5.588,5.229c-1.58,1.919-3.134,3.984-4.619,6.138a100.9,100.9,0,0,0-5.4,8.751c-.527.96-.938,1.769-1.294,2.546a11.456,11.456,0,0,0-.492,1.223,4.085,4.085,0,0,0-.109.436.469.469,0,0,0,.013.211.26.26,0,0,0,.252.219.332.332,0,0,0,.148-.038A.343.343,0,0,0-17,24.644l.083-.075,0-.074a1.171,1.171,0,0,1,.14-.515l.128-.283c.144-.324.294-.659.459-.977.366-.707.85-1.635,1.358-2.55a102.923,102.923,0,0,1,6.057-9.611,88.213,88.213,0,0,1,6.965-8.6Q-.913.974,0,0" fill="#fff"/></g><g transform="translate(150.607 -10.866)"><path d="M0,0-.351-.028l-.776-.061q-.15-.01-.3-.012l-1.3-.008C-3.868-.116-5.012-.124-6.157-.125h-.277c-.674,0-1.285,0-1.916.052a2.065,2.065,0,0,1-.509-.365.5.5,0,0,1-.175-.349A1.436,1.436,0,0,1-8.316-1.7l.027-.016c.075-.045.15-.091.223-.138a.311.311,0,0,0,.114-.354.349.349,0,0,0-.312-.22l-.053.006a1.624,1.624,0,0,0-.2.053q-.981.333-1.962.669a9.188,9.188,0,0,1-.953.286,2.166,2.166,0,0,1-.582.051.236.236,0,0,1-.239-.178,4.569,4.569,0,0,0-.215-.483.636.636,0,0,0-.685-.328,1.139,1.139,0,0,0-.422.137l-.071.04c-.213.121-.434.245-.643.386A9.706,9.706,0,0,0-15.588-.735c.141-.252.288-.493.44-.72l.06-.091c.079-.118.158-.235.234-.356a.242.242,0,0,0,.025-.165v-.067l-.049-.046a.273.273,0,0,0-.376,0,7.516,7.516,0,0,1-1.256.84q-1.292.7-2.587,1.4c-.129.069-.263.129-.4.19-.083.038-.167.076-.25.116a2.023,2.023,0,0,1-.48.137l-.037.008a.558.558,0,0,1-.415-.062L-20.686.43a.693.693,0,0,1-.053-.121,1.818,1.818,0,0,1-.019-.837,1.344,1.344,0,0,1,.352-.776.6.6,0,0,0,.131-.216A.3.3,0,0,0-20.3-1.8a.33.33,0,0,0-.307-.149.416.416,0,0,0-.269.121c-.041.042-.08.086-.118.13s-.072.081-.109.12a.545.545,0,0,1-.057.051l-.006-.008a1.119,1.119,0,0,0-.523-.4,1.727,1.727,0,0,0-.619-.122,2.813,2.813,0,0,0-1.462.381,4.751,4.751,0,0,0-1.147.873c-.079.082-.158.165-.235.248l-.076.081c-.493.249-1.028.493-1.681.767A19.021,19.021,0,0,1-28.893,1a5.691,5.691,0,0,1-.918.189,1.509,1.509,0,0,1-.522-.03.769.769,0,0,1-.608-.842,1.444,1.444,0,0,1,.162-.629.072.072,0,0,1,.014-.02l.015.005c.05.017.1.035.152.055a.834.834,0,0,0,.411.038,2.43,2.43,0,0,0,1.626-.985,1.394,1.394,0,0,0,.133-.235.69.69,0,0,0,.06-.361.5.5,0,0,0-.187-.356.637.637,0,0,0-.344-.147,1.114,1.114,0,0,0-.44.044A3.357,3.357,0,0,0-31.3-.79a2.217,2.217,0,0,0-.181.375A2.088,2.088,0,0,0-31.631.5a1.444,1.444,0,0,0,1.086,1.323,2.177,2.177,0,0,0,.874.051,7.74,7.74,0,0,0,1.055-.234A16.732,16.732,0,0,0-26.044.61l.12-.061c.044-.023.087-.045.131-.066l-.025.079c-.035.109-.069.217-.1.326a.813.813,0,0,0,.1.627.6.6,0,0,0,.465.306,1.471,1.471,0,0,0,.739-.1A4.739,4.739,0,0,0-23.9,1.35l.061-.04c.274-.177.557-.36.827-.555C-22.676.508-22.34.256-22,0l.5-.374.036-.025c-.005.036-.01.073-.013.11A1.923,1.923,0,0,0-21.3.733a.7.7,0,0,0,.562.413,2.16,2.16,0,0,0,1.123-.115,9.146,9.146,0,0,0,.851-.376l.344-.179c.654-.34,1.329-.69,1.975-1.076-.212.393-.451.855-.653,1.338a2.692,2.692,0,0,0-.226.724l.009.083a.453.453,0,0,0,.026.09.485.485,0,0,0,.069.121.338.338,0,0,0,.495.063.66.66,0,0,0,.154-.143c.095-.135.184-.274.268-.415a6.322,6.322,0,0,1,.559-.814,9.075,9.075,0,0,1,1.9-1.705,5.4,5.4,0,0,1,.479-.28l.134-.074a.562.562,0,0,1,.106-.037l.047-.011.018.026a.664.664,0,0,1,.051.079c.024.046.048.092.071.139.042.085.085.171.134.252a.7.7,0,0,0,.55.352c.18.015.392.031.6.031a2.8,2.8,0,0,0,.988-.158c.274-.1.552-.193.83-.284l.242-.08c-.022.054-.044.108-.065.163A1.014,1.014,0,0,0-9.48-.084c.034.043.069.083.1.124l.032.037-.3.093a3.3,3.3,0,0,0-1.025.538,2.46,2.46,0,0,0-.623.68,1.49,1.49,0,0,0-.152.343.7.7,0,0,0,.331.8,1.188,1.188,0,0,0,.525.16c.089,0,.178.008.267.008a3.349,3.349,0,0,0,.733-.075,4.9,4.9,0,0,0,1.306-.469,2.128,2.128,0,0,0,.537-.407.905.905,0,0,0,.2-1.008A1.038,1.038,0,0,0-7.628.592s-.005-.007-.006-.01c.073-.006.147-.009.22-.009C-5.275.569-3.135.567-.97.564h.322c.192,0,.383,0,.574-.013L0,.548.2.273ZM-8.231,1.229a1.376,1.376,0,0,1-.481.363,4.061,4.061,0,0,1-1.278.4,1.819,1.819,0,0,1-.257.016h0c-.065,0-.131,0-.2,0l-.146,0a.35.35,0,0,1-.177-.069.264.264,0,0,1-.019-.039,1,1,0,0,1,.193-.321,2.352,2.352,0,0,1,.469-.423A2.483,2.483,0,0,1-9.39.8l.079-.022A2.493,2.493,0,0,1-8.64.656l.075,0a1.134,1.134,0,0,1,.341.31.218.218,0,0,1-.007.26m-13.383-2.4-.017.014-.195.15c-.174.136-.35.271-.528.4l-.092.068c-.446.328-.892.656-1.346.973-.267.188-.548.351-.762.473a3.146,3.146,0,0,1-.46.2.515.515,0,0,1-.153.019l-.033,0a.044.044,0,0,1-.02-.033.957.957,0,0,1,.083-.4l.04-.087a2.258,2.258,0,0,1,.123-.24A4.172,4.172,0,0,1-23.282-1.17a2.04,2.04,0,0,1,.858-.228h.056a1.283,1.283,0,0,1,.723.205.145.145,0,0,1,.031.027m-7.5-.453a1.852,1.852,0,0,1-1.063.736.706.706,0,0,1-.2.02,2.37,2.37,0,0,1,1.261-.756" fill="#fff"/></g><g transform="translate(115.799 -5.9)"><path d="M0,0A1.4,1.4,0,0,1,1.48-1.4,1.4,1.4,0,0,1,2.959,0,1.4,1.4,0,0,1,1.48,1.4,1.4,1.4,0,0,1,0,0M2.325,0A.824.824,0,0,0,1.48-.865.825.825,0,0,0,.633,0,.825.825,0,0,0,1.48.865.824.824,0,0,0,2.325,0" fill="#fff"/></g></g><g transform="translate(121.325 -6.75)"><path d="M0,0V.715H1.252v.5H0V2.2H-.626V-.5H1.418V0Z" fill="#fff"/></g><g transform="translate(129.8 -7.252)"><path d="M0,0-1.171,2.7h-.618L-2.955,0h.676l.823,1.932L-.622,0Z" fill="#fff"/></g><path d="M131.494-4.548h.626v-2.7h-.626Z" fill="#fff"/><g clip-path="url(#a)"><g transform="translate(136.711 -5.286)"><path d="M0,0C0,.467-.371.738-1.082.738h-1.4v-2.7h1.321c.676,0,1.024.282,1.024.7a.65.65,0,0,1-.36.6A.667.667,0,0,1,0,0M-1.858-1.5v.638h.622c.3,0,.471-.109.471-.321S-.931-1.5-1.236-1.5ZM-.63-.066C-.63-.293-.8-.4-1.128-.4h-.73V.267h.73c.324,0,.5-.1.5-.333" fill="#fff"/></g></g><g transform="translate(140.75 -5.05)"><path d="M0,0V.5H-2.094V-2.2H-.05v.5H-1.472v.586H-.216v.487H-1.472V0Z" fill="#fff"/></g><g clip-path="url(#a)"><g transform="translate(39.498 -22.944)"><path d="M0,0A6.01,6.01,0,0,0-.432-.5a2.968,2.968,0,0,0-.7-.544A2.054,2.054,0,0,0-2.109-1.3a2,2,0,0,0-1.43.631,2.147,2.147,0,0,0-.6,1.456A1.936,1.936,0,0,0-3.794,1.9a2.8,2.8,0,0,0,.8.76,6.411,6.411,0,0,0,.948.5,12.188,12.188,0,0,1,1.378.683,3.24,3.24,0,0,1,1.048.985A2.946,2.946,0,0,1,.8,6.436,3.184,3.184,0,0,1,.22,8.3,3.717,3.717,0,0,1-1.259,9.529a4.644,4.644,0,0,1-1.992.445,5.229,5.229,0,0,1-.925-.117c-.343-.069-.829-.2-1.081-.269.009-.322.02-2.178,0-2.6.174.247.507.686.723.936a3.048,3.048,0,0,0,.749.625,2.03,2.03,0,0,0,1.006.263A2.131,2.131,0,0,0-1.3,8.223,2.1,2.1,0,0,0-.671,6.7,1.636,1.636,0,0,0-.9,5.744a3.082,3.082,0,0,0-.964-.828q-.715-.438-2.086-1.167A2.868,2.868,0,0,1-5.014,2.8,2.731,2.731,0,0,1-5.4,1.809a3.393,3.393,0,0,1-.057-.667,3.7,3.7,0,0,1,.5-1.909A3.408,3.408,0,0,1-3.639-2.025,3.845,3.845,0,0,1-1.8-2.477a3.382,3.382,0,0,1,1.009.158A5.507,5.507,0,0,1,0-2c-.012.225-.015.487-.015.792s0,.574.007.813S0-.028,0,0" fill="#fff"/></g><g transform="translate(3.087 -24.15)"><path d="M0,0,4.426,6.257c.554.8,1.122,1.582,1.707,2.345V2.493c0-.8-.016-1.4-.049-1.826A4.548,4.548,0,0,0,5.908-.344a6.926,6.926,0,0,0-.351-.846H7.64c-.1.276-.18.54-.245.79a5.319,5.319,0,0,0-.129.91c-.028.362-.032.85-.016,1.462V8.931c0,.316.014.667.045,1.048a4.7,4.7,0,0,0,.219,1.085H6.18c-.306-.514-.625-1.019-.962-1.515l-5.979-8.2v6.24c0,.756.025,1.356.064,1.8a7.247,7.247,0,0,0,.154,1.039,6.472,6.472,0,0,0,.187.633H-2.219c.092-.368.164-.686.213-.958a6.92,6.92,0,0,0,.1-.8c.019-.263.031-.566.028-.911V2.069c0-.371-.009-.72-.022-1.048S-1.94.372-1.97.049c-.164-.213-.327-.41-.49-.594s-.373-.4-.627-.645H-.761c.115.213.221.394.317.548S-.2-.276,0,0" fill="#fff"/></g><g transform="translate(19.129 -25.34)"><path d="M0,0-.884,1.645a10.29,10.29,0,0,0-1.444-.4A15.566,15.566,0,0,0-4.935.978L-4.905,2V5.573h2.241L-.949,5.6-1.9,7.217c-.392-.152-.72-.271-.991-.352a5.559,5.559,0,0,0-.846-.174c-.294-.034-.674-.069-1.137-.09l-.08,3.616c-.007.3-.012.5,0,.622a2.307,2.307,0,0,0,.052.4c.866-.02,1.6-.061,2.2-.131a9.4,9.4,0,0,0,1.675-.336,12.461,12.461,0,0,0,1.666-.641L-.491,12.253H-6.88c.136-.291.252-.56.345-.812a4.2,4.2,0,0,0,.217-.85A7.856,7.856,0,0,0-6.243,9.42V2.7a8.228,8.228,0,0,0-.119-1.375A5.631,5.631,0,0,0-6.75,0Z" fill="#fff"/></g><g transform="translate(32.618 -22.472)"><path d="M0,0-1.632,5.934q-.244.819-.472,1.758T-2.53,9.5h-.7L-5.667,1.288-8.181,9.5H-9.02L-11.552.62c-.1-.389-.208-.744-.317-1.071A7.488,7.488,0,0,0-12.333-1.5a15.6,15.6,0,0,0-.846-1.362h2.453a3.046,3.046,0,0,0-.086.364,2,2,0,0,0-.04.3,4.09,4.09,0,0,0,.116.821c.074.324.159.656.258,1.008l1.939,6.89,2.9-9.385,2.778,9.206L-1.18-.211c.112-.431.193-.771.244-1.016a3.953,3.953,0,0,0,.093-.712c.009-.231,0-.54-.011-.928H1.382A6.675,6.675,0,0,0,.62-1.652,9.588,9.588,0,0,0,0,0" fill="#fff"/></g><g transform="translate(78.718 -25.34)"><path d="M0,0-.882,1.645a10.371,10.371,0,0,0-1.444-.4A15.631,15.631,0,0,0-4.935.978L-4.9,2V5.573h2.238L-.946,5.6-1.9,7.217c-.393-.152-.723-.271-.993-.352a5.521,5.521,0,0,0-.845-.174c-.3-.034-.673-.069-1.136-.09l-.081,3.616c-.008.3-.011.5-.007.622a2.8,2.8,0,0,0,.056.4c.862-.02,1.6-.061,2.2-.131a9.409,9.409,0,0,0,1.674-.336,12.513,12.513,0,0,0,1.666-.641L-.49,12.253H-6.879c.135-.293.251-.56.346-.812a4.412,4.412,0,0,0,.217-.85A8.011,8.011,0,0,0-6.242,9.42V2.7a8.027,8.027,0,0,0-.12-1.375A5.538,5.538,0,0,0-6.75,0Z" fill="#fff"/></g><g transform="translate(80.169 -24.838)"><path d="M0,0V.393H.2A.607.607,0,0,0,.443.369.178.178,0,0,0,.551.189.156.156,0,0,0,.457.03.424.424,0,0,0,.261,0ZM-.2,1.079V-.155H.293C.6-.155.752-.037.749.2a.315.315,0,0,1-.1.245A.463.463,0,0,1,.405.536l.373.543H.567L.213.549H0v.53ZM-.687.463a.869.869,0,0,0,.123.46.867.867,0,0,0,.326.324.937.937,0,0,0,.465.122.931.931,0,0,0,.464-.122A.865.865,0,0,0,1.019.923a.878.878,0,0,0,.123-.46A.889.889,0,0,0,1.019,0,.867.867,0,0,0,.691-.319.918.918,0,0,0,.227-.438a.925.925,0,0,0-.465.119A.869.869,0,0,0-.564,0a.879.879,0,0,0-.123.46m-.2,0A.983.983,0,0,1-.73-.077a1.05,1.05,0,0,1,.4-.376A1.206,1.206,0,0,1,.227-.594a1.183,1.183,0,0,1,.557.141,1.089,1.089,0,0,1,.4.376,1.034,1.034,0,0,1,.153.54A1.042,1.042,0,0,1,1.188,1a1.1,1.1,0,0,1-.4.375,1.172,1.172,0,0,1-.557.142A1.2,1.2,0,0,1-.332,1.38,1.055,1.055,0,0,1-.73,1,.989.989,0,0,1-.884.463" fill="#fff"/></g><g transform="translate(53.25 -15.375)"><path d="M0,0-1.194,2.168a.518.518,0,0,1-.161.088,7.654,7.654,0,0,1-2.264.354,5.321,5.321,0,0,1-2.508-.6A5.285,5.285,0,0,1-7.832.468,7,7,0,0,1-8.837-1.587a7.278,7.278,0,0,1-.332-2.15,7.111,7.111,0,0,1,.75-3.224,6.014,6.014,0,0,1,2.137-2.38,6.5,6.5,0,0,1,3.431-.93,8.34,8.34,0,0,1,1.519.152q.7.138,1.24.286v2.182a7.906,7.906,0,0,0-.693-.614A4.51,4.51,0,0,0-1.875-8.9,4.014,4.014,0,0,0-3.4-9.193a3.433,3.433,0,0,0-2.037.675A4.7,4.7,0,0,0-6.982-6.624a6.846,6.846,0,0,0-.6,2.9A6.526,6.526,0,0,0-7.029-.962,4.106,4.106,0,0,0-5.561.788,3.535,3.535,0,0,0-3.546,1.4a4.4,4.4,0,0,0,1.581-.292A7.641,7.641,0,0,0-.765.526,3.473,3.473,0,0,0,0,0" fill="#fff"/></g><g transform="translate(71.071 -25.34)"><path d="M0,0-.914,1.661c-.541-.182-.98-.321-1.314-.42a6.139,6.139,0,0,0-.944-.2A9.393,9.393,0,0,0-4.248.994h-.638v4.6h2.292l1.761.032L-1.8,7.236c-.4-.154-.743-.273-1.02-.354a5.761,5.761,0,0,0-.869-.173c-.3-.036-.719-.066-1.193-.092v3a6.92,6.92,0,0,0,.157,1.63,5.675,5.675,0,0,0,.352,1.01h-2.29a7.414,7.414,0,0,0,.316-1.091,9.125,9.125,0,0,0,.126-1.68V3.243A12.676,12.676,0,0,0-6.3,1.7,5.18,5.18,0,0,0-6.5.729,6.535,6.535,0,0,0-6.78,0Z" fill="#fff"/></g><g transform="translate(58.499 -25.687)"><path d="M0,0,3.132,7.314c.123.3.3.7.533,1.207s.466.992.692,1.461.395.819.5,1.021a17.044,17.044,0,0,0,1,1.6h-2.7c.046-.239.128-.522.135-.632a1.344,1.344,0,0,1,.029-.173,2.755,2.755,0,0,0-.268-1.258,9.05,9.05,0,0,0-.354-.929L1.966,7.85H-2.186L-3.457,10.8a7.168,7.168,0,0,0-.412,1.09,3.564,3.564,0,0,0,.006.709H-6.034a7.14,7.14,0,0,0,.728-1.145c.225-.377.347-.6.554-.986.265-.5.4-.78.638-1.3S0,0,0,0M-1.748,6.823H1.559L-.029,3.005Z" fill="#fff"/></g><g transform="translate(101.169 -13.395)"><path d="M0,0A8.437,8.437,0,0,0-1.827-5.415a10.253,10.253,0,0,0-4.8-3.316c-5.143-1.042-8.294.783-8.923,1.2l0,0,2.718,4.056h1.471A4.534,4.534,0,0,1-8.2-2.495,3.232,3.232,0,0,1-7.131,0c0,.075,0,.148-.006.221H0C0,.147,0,.075,0,0" fill="#ff3a1b"/></g><g transform="translate(79.866 -28.103)"><path d="M0,0H11.409L5.751,7.173c.629-.413,3.78-2.238,8.923-1.2l-.011-.005L20.056,0Z" fill="#a02019"/></g><g transform="translate(89.804 -9.918)"><path d="M0,0A4.6,4.6,0,0,1-4.752-3.256h-.089L-10.919.267a10.077,10.077,0,0,0,4.3,4.992A12.942,12.942,0,0,0,0,6.953l.089,0V0H0" fill="#fce74d"/></g><g transform="translate(94.032 -13.174)"><path d="M0,0A3.2,3.2,0,0,1-1.063,2.275a4.472,4.472,0,0,1-3.075.979v6.953A12.113,12.113,0,0,0,3.839,7.445,9.39,9.39,0,0,0,7.133,0Z" fill="#ffaf31"/></g></g><path d="M89.894-28.1H99.922v-6.685H89.894Z" fill="#fce74d"/><path d="M79.866-28.1H89.894v-6.685H79.866Z" fill="#ffaf31"/><g clip-path="url(#a)"><g transform="translate(102.295 -18.849)"><path d="M0,0A10.522,10.522,0,0,1,.629-3.594H-4.895q-.059.249-.109.5A10.426,10.426,0,0,1-1.419-.228h0A8.884,8.884,0,0,1,.5,5.454c0,.049,0,.1,0,.145,0,.027,0,.055,0,.083a10.721,10.721,0,0,1-1.359,5.3A16.025,16.025,0,0,0,5.815,15.13l3.439-4.61A10.647,10.647,0,0,1,0,0" fill="#ff3a1b"/></g><g transform="translate(101.549 -29.951)"><path d="M0,0V2.013L-3.786,6.206q-.208.641-.363,1.3H1.375A10.7,10.7,0,0,1,11.447.485V-4.781A16.021,16.021,0,0,0,0,0" fill="#ffb532"/></g><g transform="translate(112.996 -34.732)"><path d="M0,0V5.266a10.709,10.709,0,0,1,9.123,5.07L13.129,6.8A16.026,16.026,0,0,0,0,0" fill="#fce74d"/></g></g></g><g transform="translate(323.724 1154.075)"><g transform="translate(0 -9.075)" clip-path="url(#e)"><g transform="translate(-0.001)"><path d="M1.6,6.757A3.678,3.678,0,0,0,4.3,5.735,3.62,3.62,0,0,0,5.334,3.041v-8.4A3.623,3.623,0,0,0,4.3-8.053,3.685,3.685,0,0,0,1.6-9.075a3.682,3.682,0,0,0-2.7,1.022A3.623,3.623,0,0,0-2.143-5.359v8.4A3.62,3.62,0,0,0-1.108,5.735,3.675,3.675,0,0,0,1.6,6.757m0-2.2a1.351,1.351,0,0,1-1.033-.4A1.57,1.57,0,0,1,.188,3.041v-8.4a1.566,1.566,0,0,1,.375-1.12,1.345,1.345,0,0,1,1.033-.4,1.347,1.347,0,0,1,1.033.4A1.566,1.566,0,0,1,3-5.359v8.4a1.57,1.57,0,0,1-.375,1.122,1.354,1.354,0,0,1-1.033.4m9.63,2.2a3.489,3.489,0,0,0,2.594-1,3.546,3.546,0,0,0,.991-2.606V-8.855H12.524V3.151a1.415,1.415,0,0,1-.363,1.033,1.351,1.351,0,0,1-1.868,0A1.415,1.415,0,0,1,9.93,3.151V-8.855H7.6V3.151a3.511,3.511,0,0,0,1.01,2.606,3.566,3.566,0,0,0,2.617,1m13.7-.22L22.967-.345A3.116,3.116,0,0,0,24.155-1.62a4.048,4.048,0,0,0,.417-1.868V-5.183a3.633,3.633,0,0,0-.989-2.671,3.574,3.574,0,0,0-2.661-1h-3.65V6.537H19.6V.184h1.209l1.694,6.354ZM19.6-6.655h1.209a1.425,1.425,0,0,1,1.055.373,1.428,1.428,0,0,1,.373,1.055v1.781a1.428,1.428,0,0,1-.373,1.055,1.425,1.425,0,0,1-1.055.373H19.6ZM34.468,6.757a3.933,3.933,0,0,0,1.957-.483,3.4,3.4,0,0,0,1.329-1.342,3.983,3.983,0,0,0,.473-1.957A4.389,4.389,0,0,0,37.6.677a16.16,16.16,0,0,0-2.341-2.76,14.1,14.1,0,0,1-1.694-1.923,2.519,2.519,0,0,1-.44-1.4,1.616,1.616,0,0,1,.33-1.1,1.194,1.194,0,0,1,.946-.373,1.093,1.093,0,0,1,.946.461,2.3,2.3,0,0,1,.33,1.342v.44l2.244-.241v-.4a3.947,3.947,0,0,0-.946-2.77A3.343,3.343,0,0,0,34.38-9.075a3.367,3.367,0,0,0-2.6,1.022,3.912,3.912,0,0,0-.946,2.76,4.59,4.59,0,0,0,.628,2.353,13.467,13.467,0,0,0,2.341,2.7,11.447,11.447,0,0,1,1.7,1.891,2.659,2.659,0,0,1,.427,1.429,1.43,1.43,0,0,1-.406,1.078,1.494,1.494,0,0,1-1.089.4,1.341,1.341,0,0,1-1.1-.485,2.02,2.02,0,0,1-.4-1.319V2.183l-2.242.243v.55a3.983,3.983,0,0,0,.473,1.957A3.391,3.391,0,0,0,32.51,6.274a3.933,3.933,0,0,0,1.957.483M39.393-6.655h2.551V6.537h2.331V-6.655h2.551v-2.2H39.393ZM52.168,6.757a3.678,3.678,0,0,0,2.7-1.022,3.619,3.619,0,0,0,1.033-2.694v-8.4a3.622,3.622,0,0,0-1.033-2.694,3.685,3.685,0,0,0-2.7-1.022,3.686,3.686,0,0,0-2.706,1.022A3.622,3.622,0,0,0,48.43-5.359v8.4a3.619,3.619,0,0,0,1.033,2.694,3.679,3.679,0,0,0,2.706,1.022m0-2.2a1.358,1.358,0,0,1-1.035-.4,1.57,1.57,0,0,1-.373-1.122v-8.4a1.565,1.565,0,0,1,.373-1.12,1.351,1.351,0,0,1,1.035-.4,1.347,1.347,0,0,1,1.033.4,1.565,1.565,0,0,1,.373,1.12v8.4A1.57,1.57,0,0,1,53.2,4.163a1.354,1.354,0,0,1-1.033.4M65.911,6.537,63.953-.345A3.116,3.116,0,0,0,65.141-1.62a4.048,4.048,0,0,0,.417-1.868V-5.183a3.633,3.633,0,0,0-.989-2.671,3.577,3.577,0,0,0-2.661-1h-3.65V6.537H60.59V.184H61.8l1.692,6.354ZM60.59-6.655H61.8a1.428,1.428,0,0,1,1.055.373,1.428,1.428,0,0,1,.373,1.055v1.781a1.428,1.428,0,0,1-.373,1.055,1.428,1.428,0,0,1-1.055.373H60.59Zm12.137-2.2L70.879-2.983l-1.8-5.872H66.593L69.714.095V6.537h2.331V.095l3.123-8.95ZM84.512,6.757a3.933,3.933,0,0,0,1.957-.483A3.4,3.4,0,0,0,87.8,4.932a4,4,0,0,0,.473-1.957,4.374,4.374,0,0,0-.628-2.3A16.16,16.16,0,0,0,85.3-2.083a14.058,14.058,0,0,1-1.692-1.923,2.507,2.507,0,0,1-.441-1.4A1.616,1.616,0,0,1,83.5-6.5a1.191,1.191,0,0,1,.946-.373,1.09,1.09,0,0,1,.944.461,2.3,2.3,0,0,1,.331,1.342v.44l2.242-.241v-.4a3.947,3.947,0,0,0-.946-2.77,3.34,3.34,0,0,0-2.594-1.035A3.363,3.363,0,0,0,81.83-8.053a3.9,3.9,0,0,0-.946,2.76,4.588,4.588,0,0,0,.626,2.353,13.525,13.525,0,0,0,2.341,2.7,11.446,11.446,0,0,1,1.7,1.891,2.646,2.646,0,0,1,.429,1.429,1.436,1.436,0,0,1-.406,1.078,1.5,1.5,0,0,1-1.089.4,1.341,1.341,0,0,1-1.1-.485A2.01,2.01,0,0,1,83,2.755V2.183l-2.244.243v.55a3.983,3.983,0,0,0,.473,1.957,3.4,3.4,0,0,0,1.331,1.342,3.921,3.921,0,0,0,1.956.483M89.437-6.655h2.552V6.537h2.329V-6.655H96.87v-2.2H89.437ZM102.851,6.537h2.374L102.675-8.855H99.552L97,6.537h2.331l.506-3.409h2.507ZM100.145.887l.946-6.443.946,6.443Zm14.534,5.651L112.724-.345A3.112,3.112,0,0,0,113.91-1.62a4.027,4.027,0,0,0,.419-1.868V-5.183a3.627,3.627,0,0,0-.991-2.671,3.574,3.574,0,0,0-2.661-1h-3.65V6.537h2.331V.184h1.209l1.694,6.354ZM109.358-6.655h1.209a1.425,1.425,0,0,1,1.055.373A1.429,1.429,0,0,1,112-5.226v1.781a1.429,1.429,0,0,1-.375,1.055,1.425,1.425,0,0,1-1.055.373h-1.209Zm6.443,0h2.551V6.537h2.331V-6.655h2.551v-2.2H115.8ZM128.247,6.757a3.921,3.921,0,0,0,1.956-.483,3.4,3.4,0,0,0,1.331-1.342,4,4,0,0,0,.473-1.957,4.389,4.389,0,0,0-.626-2.3,16.188,16.188,0,0,0-2.343-2.76,14.057,14.057,0,0,1-1.692-1.923,2.519,2.519,0,0,1-.44-1.4,1.616,1.616,0,0,1,.33-1.1,1.191,1.191,0,0,1,.946-.373,1.093,1.093,0,0,1,.946.461,2.3,2.3,0,0,1,.33,1.342v.44l2.242-.241v-.4a3.939,3.939,0,0,0-.946-2.77,3.34,3.34,0,0,0-2.594-1.035,3.363,3.363,0,0,0-2.594,1.022,3.912,3.912,0,0,0-.946,2.76,4.606,4.606,0,0,0,.626,2.353,13.583,13.583,0,0,0,2.341,2.7,11.365,11.365,0,0,1,1.7,1.891,2.646,2.646,0,0,1,.429,1.429,1.436,1.436,0,0,1-.406,1.078,1.5,1.5,0,0,1-1.089.4,1.341,1.341,0,0,1-1.1-.485,2.02,2.02,0,0,1-.4-1.319V2.183l-2.244.243v.55a4,4,0,0,0,.473,1.957,3.4,3.4,0,0,0,1.331,1.342,3.928,3.928,0,0,0,1.957.483m19.24-15.612-1.275,10.4-1.275-10.4H142.56l-1.275,10.4-1.275-10.4h-2.352l2.265,15.393H142.5L143.725-3.6l1.232,10.136h2.573l2.264-15.393ZM151.62,6.537h2.331V-8.853H151.62Zm4.133-13.193H158.3V6.537h2.331V-6.655h2.551v-2.2h-7.432ZM167.318,6.537V-.169h2.772V6.537h2.329V-8.855H170.09v6.488h-2.772V-8.855h-2.331V6.537Zm17.35-15.393L182.82-2.983l-1.8-5.872h-2.484l3.123,8.95V6.537h2.331V.095l3.123-8.95Zm7.3,15.612a3.678,3.678,0,0,0,2.7-1.022,3.62,3.62,0,0,0,1.035-2.694v-8.4a3.623,3.623,0,0,0-1.035-2.694,3.685,3.685,0,0,0-2.7-1.022,3.682,3.682,0,0,0-2.7,1.022,3.623,3.623,0,0,0-1.035,2.694v8.4a3.62,3.62,0,0,0,1.035,2.694,3.675,3.675,0,0,0,2.7,1.022m0-2.2a1.351,1.351,0,0,1-1.033-.4,1.57,1.57,0,0,1-.375-1.122v-8.4a1.566,1.566,0,0,1,.375-1.12,1.345,1.345,0,0,1,1.033-.4,1.347,1.347,0,0,1,1.033.4,1.566,1.566,0,0,1,.375,1.12v8.4A1.57,1.57,0,0,1,193,4.163a1.354,1.354,0,0,1-1.033.4m9.63,2.2a3.489,3.489,0,0,0,2.594-1,3.546,3.546,0,0,0,.991-2.606V-8.855H202.9V3.151a1.422,1.422,0,0,1-.363,1.033,1.351,1.351,0,0,1-1.868,0,1.415,1.415,0,0,1-.363-1.033V-8.855H197.97V3.151a3.511,3.511,0,0,0,1.01,2.606,3.566,3.566,0,0,0,2.617,1m6.09-15.612v4.86l.4,6.574h1.539l.4-6.574v-4.86Zm0,15.393h2.331V4.207h-2.331Z" transform="translate(2.143 9.075)" fill="#fff"/></g></g></g></g></svg>